<svg width="130" height="96" viewBox="0 0 130 96" fill="none" xmlns="http://www.w3.org/2000/svg">
<g clip-path="url(#clip0_2596_89989)">
<path d="M73 21.3334H73.0267" stroke="#6A5AE0" stroke-width="3" stroke-linecap="round" stroke-linejoin="round"/>
<path d="M78.3333 10.6666H51.6667C47.2484 10.6666 43.6667 14.2483 43.6667 18.6666V45.3333C43.6667 49.7516 47.2484 53.3333 51.6667 53.3333H78.3333C82.7516 53.3333 86.3333 49.7516 86.3333 45.3333V18.6666C86.3333 14.2483 82.7516 10.6666 78.3333 10.6666Z" stroke="#6A5AE0" stroke-width="3" stroke-linecap="round" stroke-linejoin="round"/>
<path d="M43.6667 40L54.3333 29.3333C55.5495 28.1631 56.929 27.547 58.3333 27.547C59.7376 27.547 61.1172 28.1631 62.3333 29.3333L75.6667 42.6667" stroke="#6A5AE0" stroke-width="3" stroke-linecap="round" stroke-linejoin="round"/>
<path d="M70.3333 37.3334L73 34.6667C74.2162 33.4965 75.5957 32.8804 77 32.8804C78.4043 32.8804 79.7838 33.4965 81 34.6667L86.3333 40" stroke="#6A5AE0" stroke-width="3" stroke-linecap="round" stroke-linejoin="round"/>
</g>
<path d="M0.583438 89C0.498104 89 0.418104 88.968 0.343438 88.904C0.279438 88.84 0.247438 88.76 0.247438 88.664C0.247438 88.6213 0.258104 88.5733 0.279438 88.52L4.13544 78.2C4.16744 78.0933 4.2261 78.0027 4.31144 77.928C4.40744 77.8427 4.53544 77.8 4.69544 77.8H6.43944C6.59944 77.8 6.7221 77.8427 6.80744 77.928C6.89277 78.0027 6.95677 78.0933 6.99944 78.2L10.8554 88.52C10.8661 88.5733 10.8714 88.6213 10.8714 88.664C10.8714 88.76 10.8394 88.84 10.7754 88.904C10.7114 88.968 10.6368 89 10.5514 89H9.15944C9.0101 89 8.8981 88.968 8.82344 88.904C8.75944 88.8293 8.71677 88.76 8.69544 88.696L7.94344 86.744H3.19144L2.43944 88.696C2.4181 88.76 2.3701 88.8293 2.29544 88.904C2.23144 88.968 2.12477 89 1.97544 89H0.583438ZM3.75144 84.904H7.38344L5.55944 79.96L3.75144 84.904ZM15.1674 89.16C14.6128 89.16 14.1221 89.0693 13.6954 88.888C13.2794 88.696 12.9328 88.4293 12.6554 88.088C12.3781 87.7467 12.1648 87.3467 12.0154 86.888C11.8661 86.4187 11.7808 85.9067 11.7594 85.352C11.7488 85.16 11.7434 84.9893 11.7434 84.84C11.7434 84.68 11.7488 84.504 11.7594 84.312C11.7808 83.7787 11.8608 83.2827 11.9994 82.824C12.1488 82.3653 12.3621 81.9653 12.6394 81.624C12.9274 81.272 13.2794 81 13.6954 80.808C14.1221 80.616 14.6128 80.52 15.1674 80.52C15.7434 80.52 16.2288 80.6213 16.6234 80.824C17.0288 81.016 17.3648 81.2667 17.6314 81.576V78.024C17.6314 77.9173 17.6634 77.8267 17.7274 77.752C17.8021 77.6773 17.8981 77.64 18.0154 77.64H19.3754C19.4821 77.64 19.5728 77.6773 19.6474 77.752C19.7221 77.8267 19.7594 77.9173 19.7594 78.024V88.616C19.7594 88.7227 19.7221 88.8133 19.6474 88.888C19.5728 88.9627 19.4821 89 19.3754 89H18.1114C17.9941 89 17.8981 88.9627 17.8234 88.888C17.7594 88.8133 17.7274 88.7227 17.7274 88.616V88.024C17.4608 88.3547 17.1194 88.6267 16.7034 88.84C16.2981 89.0533 15.7861 89.16 15.1674 89.16ZM15.7594 87.448C16.2074 87.448 16.5648 87.3467 16.8314 87.144C17.0981 86.9413 17.2954 86.6853 17.4234 86.376C17.5514 86.056 17.6208 85.7307 17.6314 85.4C17.6421 85.208 17.6474 85.0053 17.6474 84.792C17.6474 84.568 17.6421 84.36 17.6314 84.168C17.6208 83.848 17.5461 83.544 17.4074 83.256C17.2688 82.9573 17.0661 82.712 16.7994 82.52C16.5328 82.328 16.1861 82.232 15.7594 82.232C15.3114 82.232 14.9541 82.3333 14.6874 82.536C14.4314 82.728 14.2448 82.984 14.1274 83.304C14.0101 83.624 13.9408 83.976 13.9194 84.36C13.9088 84.68 13.9088 85 13.9194 85.32C13.9408 85.704 14.0101 86.056 14.1274 86.376C14.2448 86.696 14.4314 86.9573 14.6874 87.16C14.9541 87.352 15.3114 87.448 15.7594 87.448ZM24.9799 89.16C24.4253 89.16 23.9346 89.0693 23.5079 88.888C23.0919 88.696 22.7453 88.4293 22.4679 88.088C22.1906 87.7467 21.9773 87.3467 21.8279 86.888C21.6786 86.4187 21.5933 85.9067 21.5719 85.352C21.5613 85.16 21.5559 84.9893 21.5559 84.84C21.5559 84.68 21.5613 84.504 21.5719 84.312C21.5933 83.7787 21.6733 83.2827 21.8119 82.824C21.9613 82.3653 22.1746 81.9653 22.4519 81.624C22.7399 81.272 23.0919 81 23.5079 80.808C23.9346 80.616 24.4253 80.52 24.9799 80.52C25.5559 80.52 26.0413 80.6213 26.4359 80.824C26.8413 81.016 27.1773 81.2667 27.4439 81.576V78.024C27.4439 77.9173 27.4759 77.8267 27.5399 77.752C27.6146 77.6773 27.7106 77.64 27.8279 77.64H29.1879C29.2946 77.64 29.3853 77.6773 29.4599 77.752C29.5346 77.8267 29.5719 77.9173 29.5719 78.024V88.616C29.5719 88.7227 29.5346 88.8133 29.4599 88.888C29.3853 88.9627 29.2946 89 29.1879 89H27.9239C27.8066 89 27.7106 88.9627 27.6359 88.888C27.5719 88.8133 27.5399 88.7227 27.5399 88.616V88.024C27.2733 88.3547 26.9319 88.6267 26.5159 88.84C26.1106 89.0533 25.5986 89.16 24.9799 89.16ZM25.5719 87.448C26.0199 87.448 26.3773 87.3467 26.6439 87.144C26.9106 86.9413 27.1079 86.6853 27.2359 86.376C27.3639 86.056 27.4333 85.7307 27.4439 85.4C27.4546 85.208 27.4599 85.0053 27.4599 84.792C27.4599 84.568 27.4546 84.36 27.4439 84.168C27.4333 83.848 27.3586 83.544 27.2199 83.256C27.0813 82.9573 26.8786 82.712 26.6119 82.52C26.3453 82.328 25.9986 82.232 25.5719 82.232C25.1239 82.232 24.7666 82.3333 24.4999 82.536C24.2439 82.728 24.0573 82.984 23.9399 83.304C23.8226 83.624 23.7533 83.976 23.7319 84.36C23.7213 84.68 23.7213 85 23.7319 85.32C23.7533 85.704 23.8226 86.056 23.9399 86.376C24.0573 86.696 24.2439 86.9573 24.4999 87.16C24.7666 87.352 25.1239 87.448 25.5719 87.448ZM39.8727 89.16C38.8807 89.16 38.038 88.9893 37.3447 88.648C36.662 88.296 36.1394 87.8 35.7767 87.16C35.414 86.5093 35.2114 85.7307 35.1687 84.824C35.158 84.3867 35.1527 83.9173 35.1527 83.416C35.1527 82.9147 35.158 82.4347 35.1687 81.976C35.2114 81.08 35.414 80.3067 35.7767 79.656C36.15 79.0053 36.678 78.5093 37.3607 78.168C38.054 77.816 38.8914 77.64 39.8727 77.64C40.598 77.64 41.2487 77.736 41.8247 77.928C42.4007 78.12 42.8914 78.3867 43.2967 78.728C43.702 79.0587 44.0167 79.448 44.2407 79.896C44.4647 80.344 44.582 80.8293 44.5927 81.352C44.6034 81.448 44.5714 81.528 44.4967 81.592C44.4327 81.656 44.3527 81.688 44.2567 81.688H42.7367C42.6194 81.688 42.5234 81.6613 42.4487 81.608C42.374 81.544 42.3207 81.4427 42.2887 81.304C42.118 80.6 41.8247 80.12 41.4087 79.864C40.9927 79.608 40.4754 79.48 39.8567 79.48C39.142 79.48 38.5714 79.6827 38.1447 80.088C37.718 80.4827 37.4887 81.1387 37.4567 82.056C37.4247 82.9307 37.4247 83.8267 37.4567 84.744C37.4887 85.6613 37.718 86.3227 38.1447 86.728C38.5714 87.1227 39.142 87.32 39.8567 87.32C40.4754 87.32 40.9927 87.192 41.4087 86.936C41.8247 86.6693 42.118 86.1893 42.2887 85.496C42.3207 85.3467 42.374 85.2453 42.4487 85.192C42.5234 85.1387 42.6194 85.112 42.7367 85.112H44.2567C44.3527 85.112 44.4327 85.144 44.4967 85.208C44.5714 85.272 44.6034 85.352 44.5927 85.448C44.582 85.9707 44.4647 86.456 44.2407 86.904C44.0167 87.352 43.702 87.7467 43.2967 88.088C42.8914 88.4187 42.4007 88.68 41.8247 88.872C41.2487 89.064 40.598 89.16 39.8727 89.16ZM49.9782 89.16C49.1249 89.16 48.4049 89.0107 47.8182 88.712C47.2422 88.4133 46.7995 87.992 46.4902 87.448C46.1915 86.904 46.0209 86.2693 45.9782 85.544C45.9675 85.352 45.9622 85.1173 45.9622 84.84C45.9622 84.5627 45.9675 84.328 45.9782 84.136C46.0209 83.4 46.1969 82.7653 46.5062 82.232C46.8262 81.688 47.2742 81.2667 47.8502 80.968C48.4369 80.6693 49.1462 80.52 49.9782 80.52C50.8102 80.52 51.5142 80.6693 52.0902 80.968C52.6769 81.2667 53.1249 81.688 53.4342 82.232C53.7542 82.7653 53.9355 83.4 53.9782 84.136C53.9889 84.328 53.9942 84.5627 53.9942 84.84C53.9942 85.1173 53.9889 85.352 53.9782 85.544C53.9355 86.2693 53.7595 86.904 53.4502 87.448C53.1515 87.992 52.7089 88.4133 52.1222 88.712C51.5462 89.0107 50.8315 89.16 49.9782 89.16ZM49.9782 87.576C50.5435 87.576 50.9809 87.4 51.2902 87.048C51.5995 86.6853 51.7702 86.1573 51.8022 85.464C51.8129 85.304 51.8182 85.096 51.8182 84.84C51.8182 84.584 51.8129 84.376 51.8022 84.216C51.7702 83.5333 51.5995 83.0107 51.2902 82.648C50.9809 82.2853 50.5435 82.104 49.9782 82.104C49.4129 82.104 48.9755 82.2853 48.6662 82.648C48.3569 83.0107 48.1862 83.5333 48.1542 84.216C48.1435 84.376 48.1382 84.584 48.1382 84.84C48.1382 85.096 48.1435 85.304 48.1542 85.464C48.1862 86.1573 48.3569 86.6853 48.6662 87.048C48.9755 87.4 49.4129 87.576 49.9782 87.576ZM58.4141 89C58.2434 89 58.1154 88.9627 58.0301 88.888C57.9554 88.8027 57.8914 88.7067 57.8381 88.6L54.8461 81.176C54.8247 81.1227 54.8141 81.0747 54.8141 81.032C54.8141 80.936 54.8461 80.856 54.9101 80.792C54.9847 80.7173 55.0701 80.68 55.1661 80.68H56.4621C56.5901 80.68 56.6861 80.7173 56.7501 80.792C56.8141 80.856 56.8567 80.92 56.8781 80.984L59.0061 86.6L61.1341 80.984C61.1554 80.92 61.1981 80.856 61.2621 80.792C61.3261 80.7173 61.4221 80.68 61.5501 80.68H62.8621C62.9474 80.68 63.0221 80.7173 63.0861 80.792C63.1607 80.856 63.1981 80.936 63.1981 81.032C63.1981 81.0747 63.1927 81.1227 63.1821 81.176L60.1741 88.6C60.1314 88.7067 60.0674 88.8027 59.9821 88.888C59.8967 88.9627 59.7687 89 59.5981 89H58.4141ZM67.9447 89.16C66.7607 89.16 65.822 88.8187 65.1287 88.136C64.4354 87.4533 64.062 86.4827 64.0087 85.224C63.998 85.1173 63.9927 84.984 63.9927 84.824C63.9927 84.6533 63.998 84.52 64.0087 84.424C64.0514 83.624 64.2327 82.9307 64.5527 82.344C64.8834 81.7573 65.3367 81.3093 65.9127 81C66.4887 80.68 67.166 80.52 67.9447 80.52C68.8087 80.52 69.534 80.7013 70.1207 81.064C70.7074 81.416 71.15 81.912 71.4487 82.552C71.7474 83.1813 71.8967 83.912 71.8967 84.744V85.08C71.8967 85.1867 71.8594 85.2773 71.7847 85.352C71.71 85.4267 71.614 85.464 71.4967 85.464H66.1847C66.1847 85.464 66.1847 85.48 66.1847 85.512C66.1847 85.544 66.1847 85.5707 66.1847 85.592C66.1954 85.9653 66.2647 86.312 66.3927 86.632C66.5314 86.9413 66.7287 87.192 66.9847 87.384C67.2514 87.576 67.566 87.672 67.9287 87.672C68.2274 87.672 68.478 87.6293 68.6807 87.544C68.8834 87.448 69.0487 87.3413 69.1767 87.224C69.3047 87.1067 69.3954 87.0107 69.4487 86.936C69.5447 86.808 69.6194 86.7333 69.6727 86.712C69.7367 86.68 69.8274 86.664 69.9447 86.664H71.3207C71.4274 86.664 71.5127 86.696 71.5767 86.76C71.6514 86.824 71.6834 86.904 71.6727 87C71.662 87.1707 71.5714 87.3787 71.4007 87.624C71.2407 87.8693 71.006 88.1093 70.6967 88.344C70.3874 88.5787 69.998 88.776 69.5287 88.936C69.07 89.0853 68.542 89.16 67.9447 89.16ZM66.1847 84.12H69.7207V84.072C69.7207 83.656 69.6514 83.2933 69.5127 82.984C69.374 82.6747 69.1714 82.4293 68.9047 82.248C68.638 82.0667 68.318 81.976 67.9447 81.976C67.5714 81.976 67.2514 82.0667 66.9847 82.248C66.718 82.4293 66.5154 82.6747 66.3767 82.984C66.2487 83.2933 66.1847 83.656 66.1847 84.072V84.12ZM73.9791 89C73.8724 89 73.7817 88.9627 73.7071 88.888C73.6324 88.8133 73.5951 88.7227 73.5951 88.616V81.08C73.5951 80.9627 73.6324 80.8667 73.7071 80.792C73.7817 80.7173 73.8724 80.68 73.9791 80.68H75.2751C75.3817 80.68 75.4724 80.7173 75.5471 80.792C75.6324 80.8667 75.6751 80.9627 75.6751 81.08V81.736C75.9204 81.3947 76.2351 81.1333 76.6191 80.952C77.0137 80.7707 77.4671 80.68 77.9791 80.68H78.6351C78.7524 80.68 78.8431 80.7173 78.9071 80.792C78.9817 80.8667 79.0191 80.9573 79.0191 81.064V82.216C79.0191 82.3227 78.9817 82.4133 78.9071 82.488C78.8431 82.5627 78.7524 82.6 78.6351 82.6H77.3871C76.8751 82.6 76.4751 82.744 76.1871 83.032C75.9097 83.32 75.7711 83.7147 75.7711 84.216V88.616C75.7711 88.7227 75.7337 88.8133 75.6591 88.888C75.5844 88.9627 75.4884 89 75.3711 89H73.9791ZM84.1554 89C84.0488 89 83.9581 88.9627 83.8834 88.888C83.8088 88.8133 83.7714 88.7227 83.7714 88.616V78.184C83.7714 78.0773 83.8088 77.9867 83.8834 77.912C83.9581 77.8373 84.0488 77.8 84.1554 77.8H85.6594C85.7768 77.8 85.8674 77.8373 85.9314 77.912C86.0061 77.9867 86.0434 78.0773 86.0434 78.184V88.616C86.0434 88.7227 86.0061 88.8133 85.9314 88.888C85.8674 88.9627 85.7768 89 85.6594 89H84.1554ZM88.7447 89C88.638 89 88.5474 88.9627 88.4727 88.888C88.398 88.8133 88.3607 88.7227 88.3607 88.616V81.064C88.3607 80.9573 88.398 80.8667 88.4727 80.792C88.5474 80.7173 88.638 80.68 88.7447 80.68H89.9927C90.0994 80.68 90.19 80.7173 90.2647 80.792C90.3394 80.8667 90.3767 80.9573 90.3767 81.064V81.608C90.6007 81.3093 90.8994 81.0587 91.2727 80.856C91.6567 80.6427 92.11 80.5307 92.6327 80.52C93.8487 80.4987 94.6967 80.9733 95.1767 81.944C95.422 81.5173 95.774 81.176 96.2327 80.92C96.702 80.6533 97.2194 80.52 97.7847 80.52C98.3394 80.52 98.8407 80.648 99.2887 80.904C99.7474 81.16 100.105 81.5493 100.361 82.072C100.627 82.584 100.761 83.2347 100.761 84.024V88.616C100.761 88.7227 100.723 88.8133 100.649 88.888C100.574 88.9627 100.483 89 100.377 89H99.0647C98.958 89 98.8674 88.9627 98.7927 88.888C98.718 88.8133 98.6807 88.7227 98.6807 88.616V84.152C98.6807 83.672 98.6114 83.2933 98.4727 83.016C98.334 82.728 98.1474 82.5253 97.9127 82.408C97.678 82.2907 97.4167 82.232 97.1287 82.232C96.894 82.232 96.6594 82.2907 96.4247 82.408C96.19 82.5253 95.998 82.728 95.8487 83.016C95.6994 83.2933 95.6247 83.672 95.6247 84.152V88.616C95.6247 88.7227 95.5874 88.8133 95.5127 88.888C95.438 88.9627 95.3474 89 95.2407 89H93.9287C93.8114 89 93.7154 88.9627 93.6407 88.888C93.5767 88.8133 93.5447 88.7227 93.5447 88.616V84.152C93.5447 83.672 93.47 83.2933 93.3207 83.016C93.1714 82.728 92.9794 82.5253 92.7447 82.408C92.51 82.2907 92.2594 82.232 91.9927 82.232C91.7474 82.232 91.5074 82.296 91.2727 82.424C91.038 82.5413 90.846 82.7387 90.6967 83.016C90.5474 83.2933 90.4727 83.672 90.4727 84.152V88.616C90.4727 88.7227 90.4354 88.8133 90.3607 88.888C90.286 88.9627 90.1954 89 90.0887 89H88.7447ZM105.214 89.16C104.66 89.16 104.158 89.0533 103.71 88.84C103.262 88.616 102.905 88.3227 102.638 87.96C102.382 87.5867 102.254 87.1707 102.254 86.712C102.254 85.9653 102.553 85.3733 103.15 84.936C103.758 84.488 104.558 84.1893 105.55 84.04L107.742 83.72V83.384C107.742 82.936 107.63 82.5893 107.406 82.344C107.182 82.0987 106.798 81.976 106.254 81.976C105.87 81.976 105.556 82.056 105.31 82.216C105.076 82.3653 104.9 82.568 104.782 82.824C104.697 82.9627 104.574 83.032 104.414 83.032H103.15C103.033 83.032 102.942 83 102.878 82.936C102.825 82.872 102.798 82.7867 102.798 82.68C102.809 82.5093 102.878 82.3013 103.006 82.056C103.134 81.8107 103.337 81.576 103.614 81.352C103.892 81.1173 104.249 80.92 104.686 80.76C105.124 80.6 105.652 80.52 106.27 80.52C106.942 80.52 107.508 80.6053 107.966 80.776C108.436 80.936 108.809 81.1547 109.086 81.432C109.364 81.7093 109.566 82.0347 109.694 82.408C109.822 82.7813 109.886 83.176 109.886 83.592V88.616C109.886 88.7227 109.849 88.8133 109.774 88.888C109.7 88.9627 109.609 89 109.502 89H108.206C108.089 89 107.993 88.9627 107.918 88.888C107.854 88.8133 107.822 88.7227 107.822 88.616V87.992C107.684 88.1947 107.497 88.3867 107.262 88.568C107.028 88.7387 106.74 88.8827 106.398 89C106.068 89.1067 105.673 89.16 105.214 89.16ZM105.758 87.64C106.132 87.64 106.468 87.56 106.766 87.4C107.076 87.24 107.316 86.9947 107.486 86.664C107.668 86.3227 107.758 85.896 107.758 85.384V85.048L106.158 85.304C105.529 85.4 105.06 85.5547 104.75 85.768C104.441 85.9813 104.286 86.2427 104.286 86.552C104.286 86.7867 104.356 86.9893 104.494 87.16C104.644 87.32 104.83 87.4427 105.054 87.528C105.278 87.6027 105.513 87.64 105.758 87.64ZM115.699 92.52C114.92 92.52 114.28 92.4187 113.779 92.216C113.277 92.0133 112.883 91.768 112.595 91.48C112.307 91.192 112.099 90.904 111.971 90.616C111.853 90.3387 111.789 90.12 111.779 89.96C111.768 89.8533 111.8 89.7573 111.875 89.672C111.96 89.5973 112.056 89.56 112.163 89.56H113.555C113.661 89.56 113.747 89.5813 113.811 89.624C113.875 89.6773 113.928 89.768 113.971 89.896C114.035 90.0347 114.12 90.184 114.227 90.344C114.333 90.504 114.493 90.6373 114.707 90.744C114.931 90.8613 115.235 90.92 115.619 90.92C116.024 90.92 116.365 90.8613 116.643 90.744C116.92 90.6267 117.128 90.4293 117.267 90.152C117.416 89.8747 117.491 89.4907 117.491 89V87.912C117.235 88.2213 116.904 88.472 116.499 88.664C116.104 88.856 115.613 88.952 115.027 88.952C114.451 88.952 113.955 88.8613 113.539 88.68C113.123 88.488 112.776 88.2267 112.499 87.896C112.221 87.5547 112.008 87.1547 111.859 86.696C111.72 86.2373 111.64 85.7307 111.619 85.176C111.608 84.888 111.608 84.6 111.619 84.312C111.64 83.7787 111.72 83.2827 111.859 82.824C111.997 82.3653 112.205 81.9653 112.483 81.624C112.771 81.272 113.123 81 113.539 80.808C113.955 80.616 114.451 80.52 115.027 80.52C115.635 80.52 116.147 80.6373 116.563 80.872C116.979 81.096 117.32 81.3787 117.587 81.72V81.08C117.587 80.9627 117.624 80.8667 117.699 80.792C117.773 80.7173 117.864 80.68 117.971 80.68H119.267C119.373 80.68 119.464 80.7173 119.539 80.792C119.613 80.8667 119.651 80.9627 119.651 81.08L119.667 88.792C119.667 89.56 119.523 90.2213 119.235 90.776C118.947 91.3307 118.509 91.7573 117.923 92.056C117.347 92.3653 116.605 92.52 115.699 92.52ZM115.619 87.256C116.056 87.256 116.408 87.16 116.675 86.968C116.941 86.776 117.139 86.5253 117.267 86.216C117.395 85.9067 117.469 85.592 117.491 85.272C117.501 85.1333 117.507 84.9573 117.507 84.744C117.507 84.5307 117.501 84.36 117.491 84.232C117.469 83.9013 117.395 83.5867 117.267 83.288C117.139 82.9787 116.941 82.728 116.675 82.536C116.408 82.3333 116.056 82.232 115.619 82.232C115.181 82.232 114.829 82.3333 114.563 82.536C114.296 82.728 114.104 82.984 113.987 83.304C113.88 83.624 113.816 83.976 113.795 84.36C113.773 84.616 113.773 84.8773 113.795 85.144C113.816 85.5173 113.88 85.8693 113.987 86.2C114.104 86.52 114.296 86.776 114.563 86.968C114.829 87.16 115.181 87.256 115.619 87.256ZM125.382 89.16C124.198 89.16 123.26 88.8187 122.566 88.136C121.873 87.4533 121.5 86.4827 121.446 85.224C121.436 85.1173 121.43 84.984 121.43 84.824C121.43 84.6533 121.436 84.52 121.446 84.424C121.489 83.624 121.67 82.9307 121.99 82.344C122.321 81.7573 122.774 81.3093 123.35 81C123.926 80.68 124.604 80.52 125.382 80.52C126.246 80.52 126.972 80.7013 127.558 81.064C128.145 81.416 128.588 81.912 128.886 82.552C129.185 83.1813 129.334 83.912 129.334 84.744V85.08C129.334 85.1867 129.297 85.2773 129.222 85.352C129.148 85.4267 129.052 85.464 128.934 85.464H123.622C123.622 85.464 123.622 85.48 123.622 85.512C123.622 85.544 123.622 85.5707 123.622 85.592C123.633 85.9653 123.702 86.312 123.83 86.632C123.969 86.9413 124.166 87.192 124.422 87.384C124.689 87.576 125.004 87.672 125.366 87.672C125.665 87.672 125.916 87.6293 126.118 87.544C126.321 87.448 126.486 87.3413 126.614 87.224C126.742 87.1067 126.833 87.0107 126.886 86.936C126.982 86.808 127.057 86.7333 127.11 86.712C127.174 86.68 127.265 86.664 127.382 86.664H128.758C128.865 86.664 128.95 86.696 129.014 86.76C129.089 86.824 129.121 86.904 129.11 87C129.1 87.1707 129.009 87.3787 128.838 87.624C128.678 87.8693 128.444 88.1093 128.134 88.344C127.825 88.5787 127.436 88.776 126.966 88.936C126.508 89.0853 125.98 89.16 125.382 89.16ZM123.622 84.12H127.158V84.072C127.158 83.656 127.089 83.2933 126.95 82.984C126.812 82.6747 126.609 82.4293 126.342 82.248C126.076 82.0667 125.756 81.976 125.382 81.976C125.009 81.976 124.689 82.0667 124.422 82.248C124.156 82.4293 123.953 82.6747 123.814 82.984C123.686 83.2933 123.622 83.656 123.622 84.072V84.12Z" fill="#6A5AE0"/>
<defs>
<clipPath id="clip0_2596_89989">
<rect width="64" height="64" fill="white" transform="translate(33)"/>
</clipPath>
</defs>
</svg>
