<svg width="40" height="40" viewBox="0 0 40 40" fill="none" xmlns="http://www.w3.org/2000/svg">
<mask id="mask0_2726_73274" style="mask-type:alpha" maskUnits="userSpaceOnUse" x="0" y="0" width="40" height="40">
<rect width="40" height="40" rx="9.6" fill="#6A5AE0"/>
</mask>
<g mask="url(#mask0_2726_73274)">
<path d="M41.2865 28.899C41.2864 34.5085 39.0402 39.8883 35.0419 43.8549C31.0436 47.8214 25.6209 50.0498 19.9665 50.05C19.6749 50.05 19.3888 50.0445 19.0972 50.0336C17.5398 49.9705 15.9939 49.7399 14.4866 49.3459C14.7782 49.1985 15.0643 49.0511 15.3504 48.8928C15.3559 48.8928 15.3614 48.8874 15.3724 48.8819L15.3779 48.8765C15.6805 48.7127 15.9776 48.549 16.2692 48.3798C16.3407 48.3361 16.4123 48.2979 16.4838 48.2597C16.7589 48.0959 17.034 47.9322 17.3036 47.7575C17.3833 47.7147 17.4604 47.6673 17.5347 47.6156C17.7437 47.49 17.9528 47.3536 18.1564 47.2171C18.2994 47.1243 18.448 47.0261 18.5855 46.9333C18.7946 46.7914 18.9982 46.6495 19.2017 46.5021C19.3393 46.4093 19.4658 46.3165 19.5979 46.2128C19.7739 46.0927 19.9445 45.9617 20.1151 45.8307C20.2691 45.7216 20.4177 45.6069 20.5662 45.4868C20.7753 45.3286 20.9789 45.1648 21.1824 44.9901C21.2705 44.9246 21.3585 44.8537 21.4465 44.7773C21.6666 44.5971 21.8812 44.4116 22.0958 44.2205C22.2113 44.1223 22.3268 44.024 22.4424 43.9148C22.5689 43.8057 22.69 43.6965 22.811 43.5819C23.0421 43.3745 23.2677 43.1561 23.4933 42.9378C23.5235 42.9133 23.5511 42.8859 23.5758 42.8559C23.7959 42.6485 24.0104 42.4302 24.2195 42.2118C24.3681 42.0699 24.5056 41.9226 24.6377 41.7752C24.7972 41.6169 24.9458 41.4531 25.0943 41.2894C25.1824 41.1966 25.2649 41.1038 25.3419 41.011C25.54 40.7927 25.7325 40.5689 25.9251 40.3451C26.0242 40.2305 26.1232 40.1104 26.2167 39.9903C26.3598 39.8266 26.4973 39.6628 26.6239 39.4936C26.7559 39.3353 26.8825 39.1716 27.0035 39.0078C27.119 38.8659 27.2291 38.7185 27.3336 38.5766C27.4767 38.391 27.6142 38.2054 27.7463 38.0144C27.8783 37.8234 28.0214 37.6323 28.1534 37.4358C28.2189 37.3501 28.2796 37.2608 28.335 37.1684C28.522 36.8954 28.7036 36.6171 28.8797 36.3387C29.1052 35.9948 29.3198 35.6455 29.5234 35.2907C29.6169 35.1379 29.705 34.985 29.793 34.8322C30.5065 33.5838 31.1423 32.2932 31.6967 30.9677C31.7792 30.7821 31.8562 30.5965 31.9277 30.4055C32.0158 30.2035 32.0928 29.9961 32.1698 29.7887C32.2358 29.6195 32.3019 29.4448 32.3624 29.2702C32.4339 29.0791 32.4999 28.8826 32.566 28.6916C32.808 27.9929 33.0281 27.2888 33.2207 26.5738C33.2702 26.3936 33.3197 26.219 33.3637 26.0388C33.3968 25.9242 33.4243 25.8151 33.4518 25.7004L33.5838 25.1437C33.7599 24.385 33.9084 23.6208 34.035 22.8457L34.1175 22.3217C34.1285 22.2399 34.1395 22.1634 34.1505 22.0816C34.1835 21.8741 34.211 21.6667 34.2331 21.4593C34.2716 21.1482 34.3101 20.8371 34.3376 20.5259C34.3486 20.4441 34.3541 20.3622 34.3596 20.2803C34.3816 20.0674 34.3981 19.8491 34.4146 19.6362C34.4311 19.4234 34.4421 19.1996 34.4531 18.9812C34.4641 18.8284 34.4696 18.6756 34.4751 18.5173C34.4971 18.0151 34.5081 17.5129 34.5081 17.0108C34.5081 16.7542 34.5082 16.5032 34.4971 16.2521C34.4971 16.1211 34.4971 15.9955 34.4916 15.8645C34.4751 15.4115 34.4531 14.9639 34.4201 14.5163L34.4201 14.5C34.4146 14.3908 34.4091 14.2816 34.3981 14.1725C34.3761 13.8722 34.3486 13.5775 34.3211 13.2773C34.3212 13.2679 34.3194 13.2586 34.3156 13.25C35.0569 13.9198 35.75 14.6402 36.3898 15.406L36.4063 15.4224C36.4093 15.4254 36.4113 15.4292 36.4118 15.4333C39.5703 19.2204 41.2947 23.9837 41.2865 28.899Z" fill="#FF8FA2"/>
<path d="M34.4867 16.9132C34.4896 23.4426 32.7151 29.8513 29.3509 35.4611C25.9867 41.0709 21.1579 45.673 15.3756 48.7806C15.3685 48.7888 15.3588 48.7946 15.3481 48.7969L15.3427 48.8024C15.0568 48.9552 14.771 49.1026 14.4852 49.25C12.6915 48.7805 10.9687 48.0756 9.36254 47.1539C8.2006 46.4893 7.10384 45.718 6.08667 44.8504C6.27905 44.6484 6.46592 44.4464 6.6528 44.239L6.65824 44.2335C6.65824 44.2281 6.6638 44.2226 6.66929 44.2172L6.67473 44.2172C12.6893 37.5785 16.0108 28.9604 15.9967 20.0301C15.9976 16.1832 15.3854 12.3604 14.1829 8.70352L14.1774 8.70352C14.1774 8.6926 14.1719 8.68169 14.1719 8.67077L14.1664 8.67077C14.1632 8.66199 14.1614 8.65278 14.1609 8.64346C14.051 8.31049 13.9356 7.97753 13.8146 7.65001L19.9597 7.65001C25.262 7.64272 30.3752 9.60541 34.2943 13.1523C34.3383 13.5671 34.3712 13.982 34.3987 14.4023C34.4592 15.232 34.4867 16.0672 34.4867 16.9132Z" fill="#9087E5"/>
<path d="M16 19.98C16 20.3457 15.9946 20.7114 15.9837 21.0717C15.9782 21.3064 15.9673 21.5357 15.9564 21.7704C15.9128 22.7093 15.831 23.6427 15.711 24.5706C15.6838 24.8108 15.651 25.0455 15.6129 25.2802C15.5747 25.5695 15.5256 25.8534 15.4765 26.1427C15.4329 26.4156 15.3838 26.6831 15.3293 26.956C15.3184 27.0215 15.302 27.087 15.2911 27.1525C15.2475 27.3763 15.1984 27.6056 15.1493 27.8294C14.8932 28.9927 14.5783 30.1423 14.2059 31.2737C14.135 31.4975 14.0586 31.7159 13.9823 31.9288C13.9756 31.955 13.9665 31.9806 13.955 32.0052C13.8787 32.229 13.8023 32.4419 13.7205 32.6602C13.6987 32.7257 13.6715 32.7967 13.6442 32.8676C13.5569 33.1023 13.4642 33.3316 13.3715 33.5609C13.2679 33.8229 13.1588 34.0849 13.0443 34.3414C12.9298 34.6089 12.8098 34.8764 12.6898 35.1438C12.5753 35.3895 12.4553 35.6351 12.3408 35.8753C12.2154 36.1318 12.09 36.3829 11.9591 36.6286C11.8282 36.8742 11.6973 37.1253 11.561 37.3709C11.4247 37.6166 11.2883 37.8622 11.152 38.1024C11.0156 38.3425 10.8684 38.5882 10.7212 38.8284C10.5739 39.0685 10.4267 39.3032 10.274 39.538C9.97405 40.0074 9.66321 40.4714 9.34146 40.9244C9.01971 41.3775 8.6816 41.8251 8.34349 42.2672C7.83087 42.9168 7.30009 43.55 6.7511 44.1668L6.74564 44.1668C6.74019 44.1723 6.74019 44.1723 6.74019 44.1777C6.74019 44.1792 6.73964 44.1806 6.73861 44.1816C6.73757 44.1826 6.73621 44.1832 6.73474 44.1832C6.54932 44.3906 6.35845 44.598 6.16758 44.8C5.30835 44.0609 4.50959 43.2541 3.77901 42.3873C3.77347 42.377 3.76607 42.3677 3.7572 42.36C0.550114 38.5529 -1.2061 33.7318 -1.19993 28.7519L-1.19993 7.60001L13.8351 7.60001C13.955 7.92752 14.0695 8.25503 14.1732 8.588L14.1786 8.59345C14.1791 8.60276 14.181 8.61197 14.1841 8.62075L14.1895 8.62075L14.1895 8.63712C14.1892 8.64009 14.1895 8.64309 14.1904 8.64592C14.1914 8.64875 14.193 8.65134 14.195 8.6535L14.2004 8.6535C14.2053 8.67432 14.2126 8.69447 14.2222 8.71354L14.2877 8.92643C14.4731 9.50503 14.6422 10.0891 14.7949 10.6841C14.9039 11.0826 15.0021 11.4919 15.0948 11.9013C15.2638 12.6437 15.4111 13.4024 15.5365 14.1721C15.5638 14.3577 15.5965 14.5378 15.6183 14.7234C15.6838 15.1765 15.7437 15.6295 15.7928 16.088C15.8146 16.2573 15.831 16.4319 15.8419 16.6012C15.8746 16.9177 15.8964 17.2398 15.9182 17.5564C15.9728 18.3588 16 19.1667 16 19.98Z" fill="#C4D0FB"/>
</g>
<rect width="40" height="36" rx="9.6" fill="white"/>
<mask id="mask1_2726_73274" style="mask-type:alpha" maskUnits="userSpaceOnUse" x="9" y="5" width="22" height="26">
<path fill-rule="evenodd" clip-rule="evenodd" d="M19.3552 24.6303C20.1033 24.5957 20.839 24.4765 21.5489 24.2784L22.5507 25.2708C23.4934 26.2046 25.0251 26.208 25.972 25.2785C26.9188 24.349 26.9222 22.8386 25.9796 21.9048L24.8421 20.778C24.6301 20.568 24.3882 20.405 24.1299 20.2891C23.3829 19.7583 22.3283 19.828 21.4774 20.241C20.7643 20.5871 19.9805 20.789 19.1724 20.8264C17.7256 20.8933 16.3052 20.4282 15.1892 19.5218C14.0731 18.6154 13.3415 17.333 13.1374 15.9253C12.9333 14.5176 13.2714 13.0857 14.0855 11.9097C14.8997 10.7336 16.1314 9.89794 17.5399 9.566C18.9484 9.23406 20.4323 9.42972 21.7017 10.1147C22.971 10.7998 23.9344 11.9249 24.4036 13.2701C24.6551 13.9911 24.7549 14.7475 24.7048 15.4952C24.6328 16.5711 25.0505 17.7339 26.0429 18.1555C27.0166 18.5691 28.1643 18.1239 28.387 17.0897C28.7466 15.4198 28.6447 13.6734 28.0738 12.0366C27.2918 9.7945 25.6861 7.9193 23.5705 6.77761C21.455 5.63592 18.9817 5.30981 16.6343 5.86305C14.2868 6.41628 12.234 7.80908 10.877 9.76916C9.52005 11.7292 8.95658 14.1157 9.29673 16.4619C9.63689 18.8081 10.8562 20.9455 12.7164 22.4561C14.5765 23.9667 16.9437 24.7419 19.3552 24.6303ZM26.6742 26.3238C25.7274 27.2533 25.7238 28.7637 26.6664 29.6974C27.6089 30.6311 29.1407 30.6345 30.0875 29.7051C31.0342 28.7756 31.0378 27.2652 30.0952 26.3315C29.1527 25.3978 27.6209 25.3944 26.6742 26.3238Z" fill="#6A5AE0"/>
</mask>
<g mask="url(#mask1_2726_73274)">
<path fill-rule="evenodd" clip-rule="evenodd" d="M22.3265 38.1282L41.9319 18.7711L37.6929 14.7238L15.2615 37.0723L22.3265 38.1282Z" fill="#6A5AE0"/>
<path fill-rule="evenodd" clip-rule="evenodd" d="M18.4754 32.9713L37.4868 14.5985L33.3762 10.7569L11.6245 31.9691L18.4754 32.9713Z" fill="#6A5AE0"/>
<path fill-rule="evenodd" clip-rule="evenodd" d="M12.7573 32.1888L35.0974 10.0988L31.1817 5.96937L8.84159 28.0594L12.7573 32.1888Z" fill="#6A5AE0"/>
<path fill-rule="evenodd" clip-rule="evenodd" d="M8.72331 28.6077L31.0212 6.45525L25.2272 4.01324L5.56299 23.5493L8.72331 28.6077Z" fill="#6A5AE0"/>
<path fill-rule="evenodd" clip-rule="evenodd" d="M5.56299 23.8475L25.7679 4.01324L14.9438 5.07579L5.56299 15.17V23.8475Z" fill="#6A5AE0"/>
</g>
</svg>
